<svg xmlns="http://www.w3.org/2000/svg" viewBox="0 0 64 64" width="64" height="64">
  <defs>
    <linearGradient id="gradient" x1="0%" y1="0%" x2="100%" y2="100%">
      <stop offset="0%" style="stop-color:#4F46E5"/>
      <stop offset="100%" style="stop-color:#06B6D4"/>
    </linearGradient>
  </defs>
  
  <!-- Robot head -->
  <rect x="12" y="18" width="40" height="32" rx="8" fill="url(#gradient)"/>
  
  <!-- Eyes -->
  <circle cx="22" cy="28" r="4" fill="white"/>
  <circle cx="42" cy="28" r="4" fill="white"/>
  <circle cx="22" cy="28" r="2" fill="#1F2937"/>
  <circle cx="42" cy="28" r="2" fill="#1F2937"/>
  
  <!-- Mouth -->
  <rect x="28" y="38" width="8" height="3" rx="1.5" fill="white"/>
  
  <!-- Antenna -->
  <line x1="24" y1="18" x2="24" y2="12" stroke="#4F46E5" stroke-width="2" stroke-linecap="round"/>
  <line x1="40" y1="18" x2="40" y2="12" stroke="#4F46E5" stroke-width="2" stroke-linecap="round"/>
  <circle cx="24" cy="10" r="2" fill="#EF4444"/>
  <circle cx="40" cy="10" r="2" fill="#10B981"/>
  
  <!-- Body -->
  <rect x="20" y="50" width="24" height="8" rx="4" fill="#64748B"/>
  
  <!-- Neural network pattern -->
  <circle cx="18" cy="32" r="1" fill="rgba(255,255,255,0.3)"/>
  <circle cx="32" cy="26" r="1" fill="rgba(255,255,255,0.3)"/>
  <circle cx="46" cy="32" r="1" fill="rgba(255,255,255,0.3)"/>
  <line x1="18" y1="32" x2="32" y2="26" stroke="rgba(255,255,255,0.2)" stroke-width="1"/>
  <line x1="32" y1="26" x2="46" y2="32" stroke="rgba(255,255,255,0.2)" stroke-width="1"/>
</svg>